#!OML:ASF F:\VICON\USERDATA\INSTALL\rory3\rory3.ASF
:FULLY-SPECIFIED
:DEGREES
181
root 1.21104 17.1391 -16.1923 19.9856 -0.207603 -0.698921
lowerback 21.7419 0.209575 0.336369
upperback 2.79786 0.664864 3.13713
thorax -9.13579 0.361284 3.06002
lowerneck -20.7813 -4.63552 -9.06956
upperneck 13.9289 -4.84372 6.41022
head 8.0964 -2.14646 2.99376
rclavicle 4.37326e-015 3.18055e-014
rhumerus -23.5765 1.75697 -85.0269
rradius 53.4252
rwrist 0.874148
rhand -12.5024 11.7437
rfingers 7.12502
rthumb 13.5728 -17.7939
lclavicle 4.37326e-015 3.18055e-014
lhumerus -23.513 -4.7746 89.5687
lradius 45.017
lwrist -3.03747
lhand -18.2366 24.0649
lfingers 7.12502
lthumb 8.04202 53.8919
rfemur -42.1773 0.816621 19.8329
rtibia 43.3132
rfoot -16.3772 -7.62187
rtoes -6.70497
lfemur -43.3165 -0.331736 -18.8546
ltibia 43.9441
lfoot -18.9871 2.04953
ltoes -0.908289
182
root 1.2144 17.1195 -16.192 20.4962 -0.115076 -0.644832
lowerback 21.8913 0.176754 0.360498
upperback 2.77515 0.632015 3.13794
thorax -9.23951 0.345873 3.05889
lowerneck -21.6926 -4.81779 -9.15138
upperneck 14.2437 -5.03178 6.59401
head 8.37921 -2.20562 3.0372
rclavicle -1.63003e-014 3.97569e-015
rhumerus -23.3082 1.83244 -84.9681
rradius 53.6884
rwrist 0.644116
rhand -12.4672 12.5841
rfingers 7.12502
rthumb 13.6067 -16.9512
lclavicle -1.63003e-014 3.97569e-015
lhumerus -23.5033 -4.96489 89.5962
lradius 45.5736
lwrist -2.77635
lhand -18.6784 23.7
lfingers 7.12502
lthumb 7.61561 53.5429
rfemur -42.9389 0.701172 19.82
rtibia 43.7531
rfoot -16.6474 -7.832
rtoes -7.10616
lfemur -44.108 -0.45711 -18.8683
ltibia 44.3204
lfoot -19.1376 2.06497
ltoes -1.12055
183
root 1.21949 17.0984 -16.1951 20.9606 -0.237792 -0.602351
lowerback 22.027 0.183717 0.277829
upperback 2.86766 0.621139 3.13685
thorax -9.21004 0.342553 3.10865
lowerneck -22.1888 -4.7136 -9.089
upperneck 13.9211 -4.80996 6.39402
head 8.3268 -2.10861 2.98344
rclavicle -2.38542e-015 -2.38542e-015
rhumerus -22.813 2.06918 -84.943
rradius 54.0127
rwrist 0.673999
rhand -12.3152 12.4952
rfingers 7.12502
rthumb 13.7532 -17.0303
lclavicle -2.38542e-015 -2.38542e-015
lhumerus -23.3136 -4.90455 89.5993
lradius 46.1172
lwrist -2.3969
lhand -18.928 23.4506
lfingers 7.12502
lthumb 7.37469 53.3021
rfemur -43.7216 0.730359 19.7511
rtibia 44.2348
rfoot -16.91 -7.9303
rtoes -7.88381
lfemur -44.837 -0.477414 -18.917
ltibia 44.731
lfoot -19.2775 2.24497
ltoes -1.2942
184
root 1.22256 17.0799 -16.2003 21.4706 -0.506786 -0.69169
lowerback 22.1776 0.233877 0.150899
upperback 2.89505 0.660136 3.16046
thorax -9.26429 0.365809 3.1979
lowerneck -21.9776 -4.31451 -8.87287
upperneck 12.9095 -4.20494 5.80848
head 7.88105 -1.86984 2.82865
rclavicle -4.77083e-015 2.54444e-014
rhumerus -22.3496 2.4115 -85.0399
rradius 54.3597
rwrist 0.696616
rhand -12.2883 11.9915
rfingers 7.12502
rthumb 13.7792 -17.5321
lclavicle -4.77083e-015 2.54444e-014
lhumerus -23.1981 -4.85429 89.5759
lradius 46.5316
lwrist -2.42859
lhand -18.9855 24.0383
lfingers 7.12502
lthumb 7.31917 53.8917
rfemur -44.5952 0.96641 19.7567
rtibia 44.7199
rfoot -17.3564 -7.85142
rtoes -6.9062
lfemur -45.647 -0.352537 -18.8634
ltibia 45.2214
lfoot -19.4981 2.46424
ltoes -1.53735
185
root 1.21934 17.0497 -16.2148 22.1821 -0.651342 -0.783561
lowerback 22.3329 0.342145 0.0841782
upperback 2.80628 0.790264 3.16142
thorax -9.45482 0.43172 3.20201
lowerneck -22.5643 -4.72189 -9.24806
upperneck 13.0381 -4.71773 6.47762
head 8.08853 -2.05492 3.0422
rclavicle 7.15625e-015 1.35174e-014
rhumerus -22.0457 2.57455 -85.0621
rradius 54.7449
rwrist 0.440142
rhand -12.496 12.0426
rfingers 7.12502
rthumb 13.579 -17.4946
lclavicle 7.15625e-015 1.35174e-014
lhumerus -23.0628 -5.12021 89.5463
lradius 46.9333
lwrist -2.46234
lhand -18.787 24.0579
lfingers 7.12502
lthumb 7.51074 53.9046
rfemur -45.7634 1.28417 19.7698
rtibia 45.2072
rfoot -17.6055 -7.98353
rtoes -5.64542
lfemur -46.8208 -0.251697 -18.7508
ltibia 45.7511
lfoot -19.6127 2.56153
ltoes -1.56718
186
root 1.21772 17.0135 -16.2291 22.9082 -0.827823 -0.93728
lowerback 22.3864 0.483403 0.0721113
upperback 2.83111 0.971021 3.16736
thorax -9.46649 0.516898 3.16148
lowerneck -22.8173 -4.71533 -9.13678
upperneck 12.3638 -4.67027 6.35001
head 7.89214 -2.03263 2.98162
rclavicle 5.56597e-015 7.15625e-015
rhumerus -21.6447 2.56421 -85.0373
rradius 55.0826
rwrist 0.379161
rhand -12.8049 12.3817
rfingers 7.12502
rthumb 13.2812 -17.1752
lclavicle 5.56597e-015 7.15625e-015
lhumerus -22.6899 -5.40222 89.5133
lradius 47.3498
lwrist -2.065
lhand -18.6408 23.6575
lfingers 7.12502
lthumb 7.65187 53.4991
rfemur -46.9602 1.61768 19.8315
rtibia 45.6744
rfoot -17.3698 -8.14088
rtoes -6.00688
lfemur -48.0286 0.0025473 -18.6458
ltibia 46.3248
lfoot -19.7088 2.52095
ltoes -1.03603
187
root 1.22454 16.9949 -16.2189 23.5416 -0.937245 -0.913591
lowerback 22.3399 0.469645 0.110642
upperback 2.85309 0.949939 3.06661
thorax -9.41312 0.50268 3.03315
lowerneck -22.973 -4.57951 -8.91587
upperneck 11.7093 -4.48778 6.18819
head 7.67316 -1.94612 2.91235
rclavicle -3.57812e-015 -1.78906e-014
rhumerus -21.4514 2.6216 -85.1684
rradius 55.6606
rwrist 0.305384
rhand -12.5967 11.9284
rfingers 7.12502
rthumb 13.4819 -17.6152
lclavicle -3.57812e-015 -1.78906e-014
lhumerus -22.4033 -5.44724 89.3284
lradius 47.6525
lwrist -1.7621
lhand -18.6666 22.8842
lfingers 7.12502
lthumb 7.62696 52.7267
rfemur -47.8713 1.57455 19.777
rtibia 46.1466
rfoot -17.3359 -8.15525
rtoes -6.5192
lfemur -48.9236 0.0711579 -18.7395
ltibia 46.8267
lfoot -19.9439 2.4769
ltoes 0.024911
188
root 1.23589 16.9813 -16.1918 24.1342 -0.787167 -0.90106
lowerback 22.264 0.301229 0.383867
upperback 2.8095 0.788173 2.98588
thorax -9.40715 0.415165 2.83474
lowerneck -23.2678 -4.56909 -8.84126
upperneck 11.4498 -4.46819 6.22887
head 7.63139 -1.92326 2.91367
rclavicle 3.57812e-015 -1.63003e-014
rhumerus -21.5511 2.78018 -85.2791
rradius 56.4925
rwrist 0.0624397
rhand -12.0768 11.149
rfingers 7.12502
rthumb 13.983 -18.3607
lclavicle 3.57812e-015 -1.63003e-014
lhumerus -22.3963 -5.27503 89.1478
lradius 48.0227
lwrist -1.68162
lhand -18.9543 21.8419
lfingers 7.12502
lthumb 7.34927 51.6943
rfemur -48.5929 1.19773 19.861
rtibia 46.6369
rfoot -17.6965 -8.10114
rtoes -6.39499
lfemur -49.676 -0.0732887 -18.7651
ltibia 47.3049
lfoot -20.3215 2.44826
ltoes 0.628458
189
root 1.25095 16.9619 -16.1677 24.8122 -0.682296 -0.77991
lowerback 22.14 0.174465 0.549474
upperback 2.734 0.655777 2.91709
thorax -9.41524 0.345998 2.70263
lowerneck -23.4169 -4.56657 -8.84253
upperneck 10.9833 -4.43811 6.2521
head 7.49736 -1.90243 2.92291
rclavicle -7.15625e-015 6.75868e-015
rhumerus -21.6396 2.94449 -85.2973
rradius 57.0822
rwrist -0.297582
rhand -11.627 10.359
rfingers 7.12502
rthumb 14.4164 -19.1203
lclavicle -7.15625e-015 6.75868e-015
lhumerus -22.4889 -5.07114 89.117
lradius 48.5188
lwrist -1.56627
lhand -18.7319 21.7535
lfingers 7.12502
lthumb 7.5639 51.5982
rfemur -49.5016 0.782357 19.8097
rtibia 47.2024
rfoot -18.0446 -8.02848
rtoes -6.28812
lfemur -50.5376 -0.233931 -18.9439
ltibia 47.7834
lfoot -20.7587 2.53176
ltoes 0.284221
190
root 1.25847 16.9277 -16.1644 25.5417 -0.692095 -0.715385
lowerback 22.404 0.11152 0.612922
upperback 2.53962 0.591208 2.82142
thorax -9.76973 0.314227 2.58563
lowerneck -23.4962 -4.56955 -8.85439
upperneck 10.3889 -4.43236 6.38467
head 7.3152 -1.88371 2.96767
rclavicle 9.54166e-015 -1.35174e-014
rhumerus -21.8176 3.06597 -85.4319
rradius 57.5105
rwrist -0.872628
rhand -10.5883 9.36223
rfingers 7.12502
rthumb 15.4171 -20.0429
lclavicle 9.54166e-015 -1.35174e-014
lhumerus -22.6801 -4.89007 88.9761
lradius 49.0287
lwrist -1.49337
lhand -18.6965 21.3968
lfingers 7.12502
lthumb 7.59808 51.2403
rfemur -50.6684 0.760443 19.7142
rtibia 47.8621
rfoot -18.2273 -8.20869
rtoes -6.41364
lfemur -51.6906 -0.24114 -19.0677
ltibia 48.3556
lfoot -20.9922 2.67268
ltoes -0.620948
191
root 1.2503 16.8739 -16.1818 26.3437 -0.783068 -0.889784
lowerback 23.0685 0.11442 0.636091
upperback 2.24046 0.618443 2.76446
thorax -10.4651 0.329719 2.51328
lowerneck -23.9422 -4.56572 -8.77482
upperneck 10.1018 -4.43282 6.57105
head 7.29336 -1.85378 3.01395
rclavicle -2.38542e-015 1.59028e-014
rhumerus -21.8929 3.13546 -85.6847
rradius 57.9384
rwrist -1.13724
rhand -9.2983 8.34057
rfingers 7.12502
rthumb 16.6593 -20.9645
lclavicle -2.38542e-015 1.59028e-014
lhumerus -22.8929 -4.61609 88.7123
lradius 49.6008
lwrist -1.53815
lhand -19.4159 20.2573
lfingers 7.12502
lthumb 6.90368 50.1247
rfemur -52.0872 1.31024 19.7581
rtibia 48.6025
rfoot -18.2458 -8.68784
rtoes -6.35519
lfemur -53.1562 -0.0531729 -18.8533
ltibia 49.0654
lfoot -21.0002 2.71657
ltoes -0.967379
